<svg width="500" height="500" viewBox="0 0 500 500" fill="none" xmlns="http://www.w3.org/2000/svg">
<path d="M29.8564 314.576C29.8564 314.576 29.8397 314.727 29.8449 314.787C29.8501 314.846 29.8178 314.819 29.8178 314.819C29.8178 314.819 29.823 314.879 29.8282 314.938C29.8052 315.359 29.7821 315.78 29.7591 316.202C29.7498 315.753 29.8052 315.359 29.7959 314.911C29.3877 339.681 24.8653 363.972 15.0327 386.782C27.3572 387.321 38.3637 378.273 44.7464 367.713C51.129 357.153 54.1305 344.912 58.82 333.483C63.5095 322.053 70.6619 310.707 81.9574 305.646C93.253 300.585 109.13 304.766 112.979 316.587C116.063 326.169 110.481 336.299 104.092 344.045C82.223 370.633 47.8761 387.742 34.7289 419.555C24.267 444.755 29.7168 473.505 36.4059 499.989C40.8212 488.164 45.3179 476.242 52.3376 465.776C59.2927 455.256 73.8895 440.354 85.8834 436.43C83.2608 446.841 85.0693 458.271 90.6883 467.392C100.106 449.08 116.337 446.013 136.211 440.771C156.117 435.556 177.422 431.955 193.551 419.165C190.096 436.146 177.53 450.99 161.369 457.255C162.932 456.639 166.203 457.401 167.91 457.402C202.588 457.422 236.762 443.473 262.298 420.127C273.168 410.193 282.454 398.601 289.558 385.672C314.315 340.415 310.746 281.138 280.748 239.115C250.729 197.184 195.726 174.656 144.873 183.477C111.661 189.258 81.2832 208.265 60.3118 234.505C42.4486 256.909 30.7108 285.665 29.7762 314.344" fill="#E8572A"/>
<path d="M134.297 281.992C211.035 244.226 237.485 305.244 243.547 323.879C243.552 323.938 243.584 323.965 243.59 324.025C243.373 324.283 243.242 324.504 242.993 324.736C242.808 325.021 242.618 325.247 242.402 325.506C235.487 333.747 224.827 339.231 211.498 340.218C171.42 343.155 164.72 357.965 164.268 358.963C162.774 356.937 162.135 336.631 183.718 325.939C189.199 323.213 194.777 318.863 195.712 312.433C197.575 299.843 181.536 287.651 171.785 299.074C166.021 305.747 164.189 315.61 162.913 323.956C155.964 369.122 113.935 364.474 113.935 364.474C148.11 338.906 136.429 317.649 134.282 283.191C134.251 282.834 134.247 282.445 134.211 282.029L134.297 281.992Z" fill="#FFC866"/>
<path d="M144.535 254.236C160.643 235.04 193.205 226.621 224.359 252.762L225.975 254.118C226.206 254.367 226.497 254.611 226.755 254.828C227.014 255.045 227.278 255.321 227.536 255.538C228.608 256.493 229.652 257.479 230.605 258.444C231.418 259.181 232.177 259.983 232.909 260.818C254.271 283.533 255.445 308.255 243.59 324.025C243.584 323.965 243.552 323.938 243.547 323.879C237.458 305.277 211.035 244.226 134.297 281.992C134.044 272.252 137.668 262.682 144.08 254.845C144.21 254.624 144.373 254.43 144.535 254.236Z" fill="#F9A602"/>
<path d="M329.403 105.467L399.342 18.0451C408.466 6.63954 422.279 0 436.885 0C463.442 0 484.967 21.5267 484.967 48.0812C484.967 62.6876 478.327 76.5019 466.923 85.6266L379.501 155.564L395.87 171.934C407.336 183.399 413.777 198.95 413.777 215.166C413.777 229.468 408.763 243.319 399.605 254.306L385.884 270.77L214.196 99.0818L230.661 85.3613C241.649 76.2048 255.499 71.1903 269.801 71.1903C286.017 71.1903 301.568 77.6319 313.033 89.0976L329.403 105.467Z" fill="#082C56"/>
<path d="M105.285 189.841L177.586 129.591L355.377 307.381L295.126 379.682L105.285 189.841Z" fill="#082C56"/>
</svg>
