<svg width="1209" height="128" viewBox="0 0 1209 128" fill="none" xmlns="http://www.w3.org/2000/svg">
<path d="M85.1256 113.603C84.1906 113.97 83.2223 114.315 82.2762 114.627C76.4216 116.586 70.2998 117.576 64.0223 117.576C32.2226 117.576 6.34436 91.6982 6.34436 59.8985C6.34436 44.8836 12.1211 31.1709 21.5485 20.9086C30.4418 11.2251 42.5851 4.5914 56.231 2.75488C57.0212 5.1034 57.6891 7.47419 57.9673 9.93401C58.0118 10.4238 58.0564 10.958 58.0786 11.5257C46.1579 12.9726 35.5618 18.7493 27.8929 27.2084C20.0459 35.8679 15.2598 47.3434 15.2598 59.9208C15.2598 86.7897 37.12 108.672 64.0111 108.672C68.8306 108.672 73.5611 107.982 78.0911 106.613L85.1144 113.636H85.1256V113.603Z" fill="#082C56"/>
<path d="M83.6119 92.633L118.628 127.649H105.995L73.6279 95.2821L71.8804 93.5346L48.5065 70.1718L60.5719 57.0268L63.8553 53.4539L95.2877 84.8863L101.454 91.0525C108.756 82.304 112.718 71.3962 112.718 59.8984C112.718 38.0271 98.2261 19.4616 78.336 13.3064C76.1099 8.95443 72.3479 5.44834 68.3632 2.37634C98.1259 4.62469 121.656 29.5569 121.656 59.8984C121.656 75.2918 115.645 89.7837 104.749 100.68L101.588 103.841L88.1197 90.3736L64.1113 66.3652L60.8613 69.9158L83.5896 92.6442L83.6119 92.633Z" fill="#082C56"/>
<path d="M92.9391 36.7138C92.9391 36.7138 92.9169 36.6804 92.9057 36.6693C92.8946 36.6582 92.9057 36.6582 92.9057 36.6582C92.9057 36.6582 92.8946 36.6471 92.8835 36.6359C92.8167 36.5469 92.7499 36.4578 92.6831 36.3688C92.761 36.4578 92.8167 36.5469 92.8946 36.6359C88.7764 31.5604 85.5708 25.8839 83.6897 19.6064C81.1075 21.5876 80.4174 25.2829 80.9183 28.4996C81.4191 31.7163 82.8884 34.6992 83.879 37.8046C84.8696 40.91 85.3482 44.4161 83.9235 47.3545C82.4988 50.293 78.5809 52.1406 75.7983 50.4043C73.5499 48.9907 72.96 45.9966 72.9377 43.3476C72.8487 34.2651 76.889 24.9824 74.151 16.3229C71.9917 9.4554 66.0146 4.56914 60.1711 0.350708C61.2842 3.48949 62.3972 6.66166 62.7534 9.9674C63.1318 13.2731 62.7089 18.7604 60.9503 21.5876C59.7148 19.0387 57.4108 17.0352 54.7284 16.1448C55.9304 21.4429 53.1701 24.8154 50.0424 29.2453C46.9037 33.6752 43.2083 38.0161 42.1176 43.3364C39.936 39.3184 39.9583 34.1872 42.1621 30.1803C41.9506 30.5698 41.1603 30.9705 40.8153 31.2599C33.8031 37.1368 29.2619 45.7517 28.0598 54.8008C27.5478 58.6519 27.6369 62.5698 28.3937 66.3876C31.065 79.733 41.8393 91.1083 55.0289 94.5142C68.2073 97.8978 83.1444 93.1229 91.9263 82.7159C97.6584 75.9152 100.575 66.9218 100.363 58.062C100.174 50.5044 97.6696 42.702 92.9948 36.7472" fill="#E8572A"/>
<path d="M77.3566 61.0116C68.2519 81.6586 52.558 73.8116 48.1726 71.0736C48.1614 71.0624 48.1503 71.0624 48.1392 71.0513C48.1392 70.9623 48.128 70.8955 48.1392 70.8064C48.128 70.7174 48.1281 70.6395 48.1281 70.5504C48.1281 67.7122 49.3524 64.796 51.879 62.3362C59.4811 54.9456 58.3235 50.8162 58.2456 50.5379C58.8912 50.6937 62.4641 54.6896 59.9152 60.5108C59.2696 61.9911 58.88 63.8165 59.7816 65.2746C61.5402 68.1351 66.8494 67.8791 66.8828 63.9167C66.9162 61.5904 65.614 59.2864 64.4564 57.3831C58.2011 47.0763 67.4839 40.8878 67.4839 40.8878C64.9127 51.8513 70.8787 54.1664 77.1562 60.7668C77.223 60.8336 77.2898 60.9115 77.3677 60.9894L77.3566 61.0116Z" fill="#FFC866"/>
<path d="M79.9945 68.3577C79.9945 74.9692 74.8411 82.1928 64.1114 82.1928H63.5548C63.4658 82.1817 63.3656 82.1817 63.2766 82.1817C63.1875 82.1817 63.0874 82.1706 62.9983 82.1706C62.6199 82.1594 62.2415 82.1372 61.8853 82.1038C61.5959 82.0926 61.3065 82.0593 61.0171 82.0147C52.8474 81.0464 48.4175 76.2492 48.1392 71.0512C48.1503 71.0624 48.1615 71.0624 48.1726 71.0735C52.558 73.8005 68.2519 81.6586 77.3566 61.0116C79.0595 62.9372 79.95 65.486 79.9834 68.1573C79.9945 68.2241 79.9945 68.2909 79.9945 68.3577Z" fill="#F9A602"/>
<path d="M207.739 99.6965C201.836 99.6965 196.332 98.6196 191.227 96.466C186.123 94.2326 181.656 91.1617 177.827 87.2533C173.999 83.2651 171.007 78.6787 168.854 73.4941C166.7 68.3095 165.623 62.7659 165.623 56.8634C165.623 50.8811 166.7 45.3375 168.854 40.2326C171.007 35.048 173.959 30.5015 177.708 26.5931C181.536 22.6846 185.963 19.6536 190.988 17.5C196.093 15.3464 201.597 14.2696 207.499 14.2696C213.402 14.2696 218.866 15.3464 223.891 17.5C228.996 19.6536 233.462 22.6846 237.291 26.5931C241.12 30.5015 244.071 35.048 246.145 40.2326C248.298 45.4173 249.375 51.0007 249.375 56.983C249.375 62.8855 248.298 68.4291 246.145 73.6137C244.071 78.7984 241.12 83.3449 237.291 87.2533C233.542 91.1617 229.115 94.2326 224.01 96.466C218.985 98.6196 213.561 99.6965 207.739 99.6965ZM247.461 104.363L208.576 65.4778L215.874 58.1795L254.64 97.0643L247.461 104.363ZM207.499 88.9284C213.402 88.9284 218.626 87.5724 223.173 84.8604C227.719 82.0687 231.269 78.2799 233.821 73.4941C236.453 68.6285 237.77 63.0849 237.77 56.8634C237.77 52.2371 237.012 48.0096 235.496 44.1809C234.061 40.2725 231.987 36.8826 229.275 34.0111C226.563 31.1396 223.372 28.9461 219.703 27.4306C216.034 25.8353 211.966 25.0377 207.499 25.0377C201.597 25.0377 196.372 26.3937 191.826 29.1056C187.279 31.8176 183.69 35.5665 181.058 40.3523C178.505 45.1381 177.229 50.6418 177.229 56.8634C177.229 61.4897 177.987 65.7969 179.502 69.7851C181.018 73.6935 183.092 77.0835 185.724 79.9549C188.436 82.7467 191.626 84.9402 195.295 86.5355C199.044 88.1307 203.112 88.9284 207.499 88.9284ZM305.894 98.5V65.3582C305.894 61.051 304.538 57.5015 301.826 54.7097C299.114 51.918 295.604 50.5222 291.297 50.5222C288.425 50.5222 285.873 51.1603 283.64 52.4365C281.406 53.7127 279.651 55.4675 278.375 57.7009C277.099 59.9343 276.461 62.4867 276.461 65.3582L272.034 62.8456C272.034 58.5384 272.991 54.7097 274.905 51.3597C276.82 48.0096 279.492 45.3774 282.922 43.4631C286.352 41.469 290.22 40.4719 294.527 40.4719C298.835 40.4719 302.623 41.4291 305.894 43.3434C309.244 45.2578 311.876 47.9298 313.79 51.3597C315.705 54.7895 316.662 58.7378 316.662 63.2046V98.5H305.894ZM265.693 98.5V13.0731H276.461V98.5H265.693ZM355.409 99.6965C350.224 99.6965 345.518 98.4202 341.291 95.8678C337.063 93.2356 333.713 89.6861 331.241 85.2194C328.848 80.7526 327.651 75.7275 327.651 70.144C327.651 64.5606 328.848 59.5355 331.241 55.0687C333.713 50.6019 337.024 47.0524 341.171 44.4202C345.399 41.788 350.145 40.4719 355.409 40.4719C359.716 40.4719 363.545 41.3892 366.895 43.2238C370.325 44.9786 373.077 47.4513 375.151 50.6418C377.224 53.7526 378.381 57.3818 378.62 61.5295V78.6388C378.381 82.7068 377.224 86.336 375.151 89.5266C373.157 92.7171 370.445 95.2297 367.015 97.0643C363.665 98.8191 359.796 99.6965 355.409 99.6965ZM357.204 89.5266C362.548 89.5266 366.855 87.7319 370.126 84.1425C373.396 80.4734 375.031 75.8072 375.031 70.144C375.031 66.2356 374.273 62.8456 372.758 59.9742C371.322 57.0229 369.248 54.7496 366.536 53.1544C363.824 51.4793 360.674 50.6418 357.084 50.6418C353.495 50.6418 350.304 51.4793 347.513 53.1544C344.801 54.8294 342.647 57.1425 341.052 60.0938C339.536 62.9653 338.778 66.2755 338.778 70.0244C338.778 73.853 339.536 77.243 341.052 80.1942C342.647 83.0657 344.84 85.339 347.632 87.014C350.424 88.6891 353.614 89.5266 357.204 89.5266ZM374.313 98.5V83.1854L376.347 69.3065L374.313 55.5473V41.6684H385.201V98.5H374.313ZM400.878 98.5V13.0731H411.646V98.5H400.878ZM451.57 99.6965C446.385 99.6965 441.679 98.4202 437.451 95.8678C433.224 93.2356 429.874 89.6861 427.401 85.2194C425.008 80.7526 423.812 75.7275 423.812 70.144C423.812 64.5606 425.008 59.5355 427.401 55.0687C429.874 50.6019 433.184 47.0524 437.332 44.4202C441.559 41.788 446.305 40.4719 451.57 40.4719C455.877 40.4719 459.705 41.3892 463.055 43.2238C466.485 44.9786 469.237 47.4513 471.311 50.6418C473.385 53.7526 474.541 57.3818 474.781 61.5295V78.6388C474.541 82.7068 473.385 86.336 471.311 89.5266C469.317 92.7171 466.605 95.2297 463.175 97.0643C459.825 98.8191 455.957 99.6965 451.57 99.6965ZM453.364 89.5266C458.708 89.5266 463.016 87.7319 466.286 84.1425C469.556 80.4734 471.191 75.8072 471.191 70.144C471.191 66.2356 470.434 62.8456 468.918 59.9742C467.482 57.0229 465.409 54.7496 462.697 53.1544C459.985 51.4793 456.834 50.6418 453.245 50.6418C449.655 50.6418 446.465 51.4793 443.673 53.1544C440.961 54.8294 438.807 57.1425 437.212 60.0938C435.697 62.9653 434.939 66.2755 434.939 70.0244C434.939 73.853 435.697 77.243 437.212 80.1942C438.807 83.0657 441.001 85.339 443.793 87.014C446.584 88.6891 449.775 89.5266 453.364 89.5266ZM470.473 98.5V83.1854L472.507 69.3065L470.473 55.5473V41.6684H481.361V98.5H470.473ZM561.648 99.6965C555.746 99.6965 550.242 98.6196 545.137 96.466C540.032 94.2326 535.565 91.1617 531.737 87.2533C527.908 83.2651 524.917 78.6787 522.763 73.4941C520.689 68.3095 519.652 62.7659 519.652 56.8634C519.652 50.8811 520.689 45.3375 522.763 40.2326C524.917 35.048 527.868 30.5015 531.617 26.5931C535.446 22.6846 539.873 19.6536 544.898 17.5C550.003 15.3464 555.506 14.2696 561.409 14.2696C567.311 14.2696 572.775 15.3464 577.8 17.5C582.905 19.6536 587.372 22.6846 591.2 26.5931C595.029 30.5015 598.02 35.048 600.174 40.2326C602.327 45.4173 603.404 51.0007 603.404 56.983C603.404 62.8855 602.327 68.4291 600.174 73.6137C598.02 78.7984 595.029 83.3449 591.2 87.2533C587.452 91.1617 583.025 94.2326 577.92 96.466C572.895 98.6196 567.471 99.6965 561.648 99.6965ZM561.409 88.9284C567.391 88.9284 572.616 87.5724 577.082 84.8604C581.629 82.0687 585.218 78.2799 587.85 73.4941C590.483 68.6285 591.799 63.0849 591.799 56.8634C591.799 52.2371 591.041 48.0096 589.525 44.1809C588.01 40.2725 585.896 36.8826 583.184 34.0111C580.472 31.1396 577.282 28.9461 573.613 27.4306C569.943 25.8353 565.875 25.0377 561.409 25.0377C555.506 25.0377 550.282 26.3937 545.735 29.1056C541.268 31.8176 537.719 35.5665 535.087 40.3523C532.534 45.1381 531.258 50.6418 531.258 56.8634C531.258 61.4897 531.976 65.7969 533.412 69.7851C534.927 73.6935 537.001 77.0835 539.633 79.9549C542.345 82.7467 545.536 84.9402 549.205 86.5355C552.954 88.1307 557.022 88.9284 561.409 88.9284ZM646.829 99.6965C642.522 99.6965 638.613 98.8191 635.104 97.0643C631.674 95.2297 628.922 92.7171 626.848 89.5266C624.774 86.336 623.618 82.7068 623.379 78.6388V61.5295C623.618 57.3818 624.774 53.7526 626.848 50.6418C629.002 47.4513 631.794 44.9786 635.223 43.2238C638.733 41.3892 642.602 40.4719 646.829 40.4719C652.014 40.4719 656.68 41.788 660.828 44.4202C665.055 47.0524 668.365 50.6019 670.758 55.0687C673.151 59.5355 674.348 64.5606 674.348 70.144C674.348 75.7275 673.151 80.7526 670.758 85.2194C668.365 89.6861 665.055 93.2356 660.828 95.8678C656.68 98.4202 652.014 99.6965 646.829 99.6965ZM616.918 122.309V41.6684H627.686V56.6241L625.652 70.3833L627.686 84.2622V122.309H616.918ZM645.034 89.5266C648.624 89.5266 651.774 88.6891 654.486 87.014C657.198 85.339 659.352 83.0657 660.947 80.1942C662.543 77.243 663.34 73.853 663.34 70.0244C663.34 66.2755 662.543 62.9254 660.947 59.9742C659.352 57.0229 657.198 54.7496 654.486 53.1544C651.774 51.4793 648.664 50.6418 645.154 50.6418C641.565 50.6418 638.414 51.4793 635.702 53.1544C632.99 54.7496 630.876 57.0229 629.361 59.9742C627.845 62.9254 627.088 66.3154 627.088 70.144C627.088 73.8929 627.805 77.243 629.241 80.1942C630.757 83.0657 632.87 85.339 635.582 87.014C638.374 88.6891 641.525 89.5266 645.034 89.5266ZM712.877 99.6965C707.214 99.6965 702.109 98.4202 697.562 95.8678C693.016 93.2356 689.427 89.6861 686.794 85.2194C684.162 80.7526 682.846 75.6876 682.846 70.0244C682.846 64.4409 684.122 59.4158 686.675 54.949C689.307 50.4823 692.817 46.9727 697.204 44.4202C701.67 41.788 706.656 40.4719 712.159 40.4719C717.424 40.4719 722.05 41.6684 726.038 44.0613C730.106 46.4542 733.257 49.7644 735.49 53.9919C737.803 58.2194 738.96 63.0052 738.96 68.3493C738.96 69.147 738.92 70.0244 738.84 70.9815C738.76 71.8589 738.601 72.8959 738.362 74.0923H690.384V65.1189H732.619L728.67 68.5886C728.67 64.76 727.992 61.5295 726.636 58.8973C725.28 56.1854 723.366 54.1115 720.893 52.6758C718.421 51.1603 715.43 50.4025 711.92 50.4025C708.251 50.4025 705.02 51.2001 702.229 52.7954C699.437 54.3907 697.283 56.6241 695.768 59.4956C694.252 62.3671 693.495 65.757 693.495 69.6654C693.495 73.6536 694.292 77.1632 695.887 80.1942C697.483 83.1455 699.756 85.4586 702.707 87.1337C705.659 88.729 709.048 89.5266 712.877 89.5266C716.068 89.5266 718.979 88.9682 721.611 87.8516C724.323 86.7349 726.636 85.0598 728.551 82.8264L735.49 89.8855C732.778 93.0761 729.428 95.5089 725.44 97.1839C721.531 98.8589 717.344 99.6965 712.877 99.6965ZM790.902 98.5V65.3582C790.902 61.051 789.546 57.5015 786.834 54.7097C784.122 51.918 780.612 50.5222 776.305 50.5222C773.434 50.5222 770.881 51.1603 768.648 52.4365C766.414 53.7127 764.66 55.4675 763.383 57.7009C762.107 59.9343 761.469 62.4867 761.469 65.3582L757.042 62.8456C757.042 58.5384 757.999 54.7097 759.914 51.3597C761.828 48.0096 764.5 45.3774 767.93 43.4631C771.36 41.469 775.228 40.4719 779.536 40.4719C783.843 40.4719 787.632 41.5487 790.902 43.7024C794.252 45.856 796.884 48.6876 798.798 52.1972C800.713 55.627 801.67 59.2962 801.67 63.2046V98.5H790.902ZM750.701 98.5V41.6684H761.469V98.5H750.701ZM841.255 99.6965C834.714 99.6965 829.131 98.5 824.504 96.1071C819.878 93.7142 815.77 90.2445 812.181 85.6979L819.838 78.0406C822.471 81.7098 825.502 84.5015 828.931 86.4158C832.361 88.2504 836.589 89.1677 841.614 89.1677C846.559 89.1677 850.507 88.0908 853.459 85.9372C856.49 83.7836 858.005 80.8323 858.005 77.0835C858.005 73.9727 857.287 71.4601 855.852 69.5458C854.416 67.6315 852.462 66.0761 849.989 64.8796C847.596 63.6034 844.964 62.4867 842.092 61.5295C839.221 60.4926 836.349 59.4158 833.478 58.2991C830.606 57.1027 827.974 55.6669 825.581 53.9919C823.188 52.2371 821.234 49.9638 819.719 47.1721C818.283 44.3804 817.565 40.8708 817.565 36.6433C817.565 31.9372 818.682 27.949 820.915 24.6787C823.228 21.3287 826.339 18.7762 830.247 17.0214C834.236 15.1869 838.702 14.2696 843.648 14.2696C849.072 14.2696 853.937 15.3464 858.245 17.5C862.552 19.5739 866.061 22.3257 868.773 25.7555L861.116 33.4129C858.643 30.5414 855.971 28.3877 853.1 26.952C850.308 25.5162 847.078 24.7984 843.408 24.7984C838.942 24.7984 835.392 25.7954 832.76 27.7895C830.128 29.7038 828.812 32.4158 828.812 35.9254C828.812 38.7171 829.53 40.9904 830.965 42.7452C832.481 44.4202 834.435 45.856 836.828 47.0524C839.221 48.2489 841.853 49.3656 844.725 50.4025C847.676 51.3597 850.587 52.4365 853.459 53.6329C856.33 54.8294 858.962 56.3449 861.355 58.1795C863.748 60.014 865.663 62.4069 867.098 65.3582C868.614 68.2297 869.372 71.8589 869.372 76.2459C869.372 83.5842 866.819 89.3272 861.714 93.4749C856.689 97.6226 849.869 99.6965 841.255 99.6965ZM907.76 99.6965C902.177 99.6965 897.151 98.3804 892.685 95.7482C888.218 93.116 884.668 89.5665 882.036 85.0997C879.404 80.5532 878.088 75.4882 878.088 69.9047C878.088 64.401 879.404 59.4557 882.036 55.0687C884.668 50.6019 888.218 47.0524 892.685 44.4202C897.151 41.788 902.177 40.4719 907.76 40.4719C913.264 40.4719 918.249 41.788 922.716 44.4202C927.262 46.9727 930.852 50.4823 933.484 54.949C936.116 59.4158 937.432 64.401 937.432 69.9047C937.432 75.4882 936.116 80.5532 933.484 85.0997C930.852 89.5665 927.262 93.116 922.716 95.7482C918.249 98.3804 913.264 99.6965 907.76 99.6965ZM907.76 89.2873C911.349 89.2873 914.54 88.4498 917.332 86.7747C920.123 85.0997 922.317 82.8264 923.912 79.9549C925.507 77.0037 926.305 73.6536 926.305 69.9047C926.305 66.2356 925.468 62.9653 923.792 60.0938C922.197 57.2223 920.004 54.9889 917.212 53.3937C914.5 51.7186 911.349 50.8811 907.76 50.8811C904.171 50.8811 900.98 51.7186 898.188 53.3937C895.397 54.9889 893.203 57.2223 891.608 60.0938C890.013 62.9653 889.215 66.2356 889.215 69.9047C889.215 73.6536 890.013 77.0037 891.608 79.9549C893.203 82.8264 895.397 85.0997 898.188 86.7747C900.98 88.4498 904.171 89.2873 907.76 89.2873ZM972.417 99.6965C967.791 99.6965 963.603 98.6595 959.854 96.5857C956.185 94.4321 953.314 91.4808 951.24 87.7319C949.166 83.983 948.129 79.6359 948.129 74.6905V41.6684H958.897V74.212C958.897 77.3227 959.416 80.0347 960.453 82.3479C961.569 84.5812 963.165 86.2962 965.238 87.4926C967.312 88.6891 969.745 89.2873 972.537 89.2873C976.764 89.2873 980.074 87.9712 982.467 85.339C984.86 82.627 986.057 78.918 986.057 74.212V41.6684H996.825V74.6905C996.825 79.6359 995.788 83.983 993.714 87.7319C991.64 91.4808 988.769 94.4321 985.1 96.5857C981.51 98.6595 977.283 99.6965 972.417 99.6965ZM1011.26 98.5V41.6684H1022.03V98.5H1011.26ZM1022.03 66.0761L1017.96 64.2814C1017.96 57.0229 1019.63 51.24 1022.98 46.9328C1026.33 42.6256 1031.16 40.4719 1037.46 40.4719C1040.33 40.4719 1042.92 40.9904 1045.24 42.0273C1047.55 42.9845 1049.7 44.6196 1051.7 46.9328L1044.64 54.2312C1043.44 52.955 1042.13 52.0377 1040.69 51.4793C1039.25 50.921 1037.58 50.6418 1035.66 50.6418C1031.68 50.6418 1028.41 51.918 1025.85 54.4705C1023.3 57.0229 1022.03 60.8914 1022.03 66.0761ZM1083.37 99.6965C1077.79 99.6965 1072.72 98.3804 1068.18 95.7482C1063.71 93.116 1060.16 89.5665 1057.53 85.0997C1054.98 80.5532 1053.7 75.5281 1053.7 70.0244C1053.7 64.4409 1054.98 59.4158 1057.53 54.949C1060.16 50.4823 1063.71 46.9727 1068.18 44.4202C1072.72 41.788 1077.79 40.4719 1083.37 40.4719C1087.76 40.4719 1091.83 41.3095 1095.58 42.9845C1099.33 44.5798 1102.56 46.9328 1105.27 50.0436L1098.09 57.2223C1096.33 55.1484 1094.18 53.5931 1091.63 52.5561C1089.16 51.4394 1086.4 50.8811 1083.37 50.8811C1079.78 50.8811 1076.59 51.7186 1073.8 53.3937C1071.01 54.9889 1068.82 57.2223 1067.22 60.0938C1065.63 62.9653 1064.83 66.2755 1064.83 70.0244C1064.83 73.7733 1065.63 77.0835 1067.22 79.9549C1068.82 82.8264 1071.01 85.0997 1073.8 86.7747C1076.59 88.4498 1079.78 89.2873 1083.37 89.2873C1086.4 89.2873 1089.16 88.7688 1091.63 87.7319C1094.18 86.6152 1096.37 85.0199 1098.21 82.9461L1105.27 90.1248C1102.64 93.1558 1099.4 95.5089 1095.58 97.1839C1091.83 98.8589 1087.76 99.6965 1083.37 99.6965ZM1141.1 99.6965C1135.44 99.6965 1130.33 98.4202 1125.79 95.8678C1121.24 93.2356 1117.65 89.6861 1115.02 85.2194C1112.39 80.7526 1111.07 75.6876 1111.07 70.0244C1111.07 64.4409 1112.35 59.4158 1114.9 54.949C1117.53 50.4823 1121.04 46.9727 1125.43 44.4202C1129.89 41.788 1134.88 40.4719 1140.38 40.4719C1145.65 40.4719 1150.27 41.6684 1154.26 44.0613C1158.33 46.4542 1161.48 49.7644 1163.71 53.9919C1166.03 58.2194 1167.18 63.0052 1167.18 68.3493C1167.18 69.147 1167.14 70.0244 1167.06 70.9815C1166.98 71.8589 1166.82 72.8959 1166.58 74.0923H1118.61V65.1189H1160.84L1156.89 68.5886C1156.89 64.76 1156.22 61.5295 1154.86 58.8973C1153.5 56.1854 1151.59 54.1115 1149.12 52.6758C1146.64 51.1603 1143.65 50.4025 1140.14 50.4025C1136.47 50.4025 1133.24 51.2001 1130.45 52.7954C1127.66 54.3907 1125.51 56.6241 1123.99 59.4956C1122.48 62.3671 1121.72 65.757 1121.72 69.6654C1121.72 73.6536 1122.52 77.1632 1124.11 80.1942C1125.71 83.1455 1127.98 85.4586 1130.93 87.1337C1133.88 88.729 1137.27 89.5266 1141.1 89.5266C1144.29 89.5266 1147.2 88.9682 1149.83 87.8516C1152.55 86.7349 1154.86 85.0598 1156.77 82.8264L1163.71 89.8855C1161 93.0761 1157.65 95.5089 1153.66 97.1839C1149.75 98.8589 1145.57 99.6965 1141.1 99.6965Z" fill="#082C56"/>
</svg>
